<svg xmlns="http://www.w3.org/2000/svg" viewBox="0 0 320 72" fill="none">
  <defs>
    <linearGradient id="bgC" x1="0%" y1="0%" x2="100%" y2="100%">
      <stop offset="0%" stop-color="#2563EB"/>
      <stop offset="50%" stop-color="#4F46E5"/>
      <stop offset="100%" stop-color="#7C3AED"/>
    </linearGradient>
    <linearGradient id="textC" x1="0%" y1="0%" x2="100%" y2="0%">
      <stop offset="0%" stop-color="#1E3A8A"/>
      <stop offset="100%" stop-color="#4338CA"/>
    </linearGradient>
    <filter id="glowC"><feGaussianBlur stdDeviation="1.2" result="blur"/><feMerge><feMergeNode in="blur"/><feMergeNode in="SourceGraphic"/></feMerge></filter>
  </defs>
  <rect x="4" y="4" width="64" height="64" rx="16" fill="url(#bgC)"/>
  <path d="M 17 48 C 17 48 17 36 29 36 C 41 36 41 28 29 28 C 19 28 17 20 17 20" stroke="#06B6D4" stroke-width="3.5" stroke-linecap="round" fill="none" filter="url(#glowC)"/>
  <circle cx="17" cy="48" r="3.5" fill="#06B6D4" filter="url(#glowC)"/>
  <circle cx="41" cy="36" r="3.5" fill="#A78BFA" filter="url(#glowC)"/>
  <circle cx="29" cy="36" r="2.8" fill="white" opacity="0.9"/>
  <circle cx="17" cy="20" r="3.5" fill="#34D399" filter="url(#glowC)"/>
  <circle cx="48" cy="20" r="2" fill="#F472B6" opacity="0.8" filter="url(#glowC)"/>
  <rect x="33" y="44" width="14" height="11" rx="2" fill="white" opacity="0.15"/>
  <rect x="35" y="46" width="10" height="1.5" rx="0.8" fill="white" opacity="0.8"/>
  <rect x="35" y="49" width="8" height="1.5" rx="0.8" fill="white" opacity="0.6"/>
  
  <text x="80" y="38" font-family="'Inter', 'Poppins', system-ui, sans-serif" font-size="26" font-weight="800" fill="url(#textC)" letter-spacing="-0.5">Savi</text>
  <text x="124" y="38" font-family="'Inter', 'Poppins', system-ui, sans-serif" font-size="26" font-weight="700" fill="#0F172A" letter-spacing="-0.5">EduTech</text>
  
  <rect x="80" y="46" width="20" height="11" rx="5.5" fill="#EEF2FF"/>
  <text x="90" y="55.5" font-family="'Inter', system-ui, sans-serif" font-size="6.5" font-weight="700" fill="#4338CA" text-anchor="middle" letter-spacing="0.08em">AI</text>
</svg>
